<?xml version="1.0" encoding="utf-8"?>
<!-- Generator: Adobe Illustrator 22.1.0, SVG Export Plug-In . SVG Version: 6.00 Build 0)  -->
<svg version="1.1" id="Layer_1" xmlns="http://www.w3.org/2000/svg" xmlns:xlink="http://www.w3.org/1999/xlink" x="0px" y="0px"
	 viewBox="0 0 1023 217" style="enable-background:new 0 0 1023 217;" xml:space="preserve">
<style type="text/css">
	.st0{fill:#222F3F;}
	.st1{fill:#F07522;}
</style>
<g>
	<g>
		<path class="st0" d="M252.2,143.9V69.9h-12.9V50.8h12.9v-6c0-12.2,2.9-21.9,8.8-29.1C266.9,8.6,274.9,5,285,5
			c8,0,16.1,1.9,24.2,5.8l-5.1,18.9c-1.9-1-4.1-1.8-6.7-2.5s-4.9-1-7-1c-8.7,0-13.1,5.9-13.1,17.6v6.9h24v19.1h-24v73.8h-25.1
			L252.2,143.9L252.2,143.9z"/>
		<path class="st0" d="M340.8,145.8c-10.1,0-17.8-3.2-23.1-9.7c-5.2-6.5-7.9-16.1-7.9-28.9V45.7h25.1v56c0,15.1,5.4,22.7,16.3,22.7
			c4.9,0,9.6-1.5,14.2-4.4s8.3-7.4,11.2-13.4V45.7h25.1V115c0,2.6,0.5,4.5,1.4,5.6s2.5,1.8,4.6,1.9v21.4c-2.5,0.5-4.6,0.8-6.3,0.9
			c-1.7,0.1-3.2,0.2-4.6,0.2c-4.5,0-8.2-1-11-3.1s-4.5-4.9-5-8.5l-0.6-7.9c-4.4,6.7-10,11.8-16.9,15.2
			C356.6,144.1,349.1,145.8,340.8,145.8z"/>
		<path class="st0" d="M513.3,143.9h-25.1V88.8c0-7.9-1.4-13.6-4.1-17.2c-2.8-3.6-6.6-5.4-11.4-5.4c-2.5,0-5.1,0.5-7.7,1.5
			s-5.1,2.4-7.4,4.2c-2.3,1.8-4.4,4-6.3,6.5s-3.3,5.2-4.1,8.2v57.4h-25.1V45.7h22.7v18.2c3.6-6.2,8.9-11.1,15.7-14.6
			c6.9-3.5,14.6-5.2,23.2-5.2c6.1,0,11.1,1.1,15,3.4c3.9,2.2,6.9,5.2,9,8.8s3.6,7.8,4.4,12.4c0.8,4.6,1.2,9.3,1.2,14.1L513.3,143.9
			L513.3,143.9z"/>
		<path class="st0" d="M597.6,143.9l-28.5-42.6l-13.5,13.3v29.2h-25.1V7.1h25.1v83L595,45.9h26.8l-36.5,41.6l39.2,56.4H597.6z"/>
		<path class="st0" d="M667.5,145.8c-8.2,0-16.3-1.3-24.2-3.9c-7.9-2.6-14.6-6.4-20.2-11.2l9.4-15.7c6,4.2,11.8,7.5,17.5,9.7
			s11.3,3.3,17,3.3c5,0,8.9-0.9,11.8-2.8c2.9-1.9,4.3-4.6,4.3-8.1s-1.7-6.1-5.1-7.7c-3.4-1.6-8.9-3.5-16.5-5.6
			c-6.4-1.7-11.8-3.4-16.3-5.1c-4.5-1.6-8.1-3.5-10.9-5.5c-2.7-2.1-4.8-4.4-6-7.1c-1.3-2.7-1.9-5.9-1.9-9.7c0-5,1-9.5,2.9-13.5
			s4.7-7.4,8.2-10.2s7.6-5,12.3-6.5s9.8-2.2,15.3-2.2c7.4,0,14.3,1.1,20.7,3.2c6.4,2.1,12.3,5.6,17.7,10.3l-10.1,15.2
			c-5-3.7-9.8-6.5-14.5-8.2c-4.7-1.7-9.3-2.6-14-2.6c-4.2,0-7.8,0.9-10.7,2.6c-2.9,1.8-4.3,4.6-4.3,8.4c0,1.8,0.3,3.2,1,4.3
			c0.7,1.1,1.8,2.1,3.3,3s3.5,1.7,5.9,2.5s5.5,1.7,9.1,2.5c6.7,1.8,12.5,3.5,17.3,5.2c4.8,1.8,8.7,3.7,11.8,6
			c3.1,2.2,5.3,4.8,6.7,7.8c1.4,2.9,2.2,6.5,2.2,10.6c0,9.6-3.6,17.2-10.7,22.8C689.4,142.9,679.7,145.8,667.5,145.8z"/>
		<path class="st0" d="M810.1,143.9H785V88.8c0-7.7-1.4-13.5-4.3-17.1c-2.9-3.7-6.9-5.5-12.2-5.5c-2.2,0-4.6,0.5-7.1,1.5
			s-4.9,2.4-7.1,4.2c-2.2,1.8-4.3,4-6.2,6.5s-3.3,5.2-4.1,8.2v57.4h-25.1V7.1H744v56.8c3.6-6.4,8.5-11.3,14.7-14.7s13-5.2,20.5-5.2
			c6.4,0,11.6,1.1,15.6,3.3s7.1,5.1,9.4,8.7c2.2,3.6,3.8,7.8,4.7,12.4s1.3,9.4,1.3,14.2L810.1,143.9L810.1,143.9z"/>
		<path class="st0" d="M854.2,145.8c-4.8,0-9.2-0.8-13.3-2.3c-4.1-1.6-7.7-3.7-10.7-6.6c-3-2.8-5.3-6.1-7-9.8s-2.5-7.9-2.5-12.4
			c0-4.6,1-8.9,3.1-12.8s4.9-7.3,8.6-10c3.7-2.7,8.1-4.9,13.2-6.5c5.1-1.6,10.7-2.3,16.9-2.3c4.4,0,8.7,0.4,12.8,1.1
			c4.2,0.7,7.9,1.8,11.2,3.2v-5.6c0-6.5-1.8-11.5-5.5-15s-9.2-5.2-16.4-5.2c-5.2,0-10.4,0.9-15.4,2.8c-5,1.9-10.1,4.6-15.4,8.2
			l-7.7-15.9C838.7,48.2,852.3,44,867,44c14.1,0,25.1,3.5,32.9,10.4c7.8,6.9,11.7,17,11.7,30.1v30.6c0,2.6,0.5,4.5,1.4,5.6
			s2.5,1.8,4.6,1.9V144c-4.2,0.9-7.9,1.3-11.1,1.3c-4.8,0-8.4-1.1-11-3.2c-2.6-2.1-4.2-4.9-4.8-8.4l-0.6-5.4
			c-4.4,5.7-9.7,10.1-15.9,13.1C868,144.3,861.3,145.8,854.2,145.8z M861.3,127.3c4.2,0,8.3-0.8,12.1-2.2c3.8-1.5,6.8-3.5,8.9-6
			c2.7-2.1,4.1-4.5,4.1-7.1v-11.2c-3-1.1-6.2-2-9.7-2.7s-6.9-1-10.1-1c-6.5,0-11.8,1.5-15.9,4.4c-4.1,2.9-6.2,6.7-6.2,11.2
			c0,4.2,1.6,7.8,4.9,10.6C852.5,125.9,856.5,127.3,861.3,127.3z"/>
		<path class="st0" d="M1021.5,143.9h-25.1V88.8c0-7.9-1.4-13.6-4.1-17.2c-2.8-3.6-6.6-5.4-11.4-5.4c-2.5,0-5.1,0.5-7.7,1.5
			c-2.6,1-5.1,2.4-7.4,4.2c-2.3,1.8-4.4,4-6.3,6.5c-1.9,2.5-3.3,5.2-4.1,8.2v57.4h-25.1V45.7h22.6v18.2c3.6-6.2,8.9-11.1,15.7-14.6
			c6.9-3.5,14.6-5.2,23.2-5.2c6.1,0,11.1,1.1,15,3.4c3.9,2.2,6.9,5.2,9,8.8s3.6,7.8,4.4,12.4c0.8,4.6,1.2,9.3,1.2,14.1L1021.5,143.9
			L1021.5,143.9z"/>
	</g>
	<g>
		<path class="st0" d="M242.6,216.6v-31.6h6.2v31.6H242.6z"/>
		<path class="st0" d="M261.5,196.3v20.3h-6.2v-31.6h4.8l16.5,20.8v-20.7h6.2v31.6h-5L261.5,196.3z"/>
		<path class="st0" d="M292.6,184.9l8.6,23.9l8.5-23.9h6.5l-12.3,31.6h-5.2l-12.4-31.6H292.6z"/>
		<path class="st0" d="M319.5,216.6v-31.6h6.2v31.6H319.5z"/>
		<path class="st0" d="M355.9,190.3h-10.1v26.3h-6.1v-26.3h-10.1v-5.4h26.3L355.9,190.3L355.9,190.3z"/>
		<path class="st0" d="M381.8,211.1v5.4h-22v-31.6h21.6v5.4H366v7.6h13.3v5H366v8.2L381.8,211.1L381.8,211.1z"/>
		<path class="st0" d="M458.9,193.1c-0.2-0.2-0.6-0.5-1.1-0.8c-0.6-0.4-1.2-0.7-2-1s-1.6-0.6-2.6-0.9c-0.9-0.2-1.9-0.4-2.8-0.4
			c-1.7,0-3,0.3-3.8,0.9c-0.8,0.6-1.2,1.5-1.2,2.6c0,0.7,0.2,1.2,0.5,1.6s0.8,0.8,1.4,1.1s1.3,0.6,2.3,0.9c0.9,0.3,2,0.5,3.1,0.8
			c1.5,0.4,2.9,0.9,4.2,1.3c1.3,0.5,2.3,1.1,3.2,1.8c0.9,0.7,1.6,1.6,2,2.6c0.5,1,0.7,2.2,0.7,3.7c0,1.7-0.3,3.1-1,4.3
			c-0.6,1.2-1.5,2.2-2.6,2.9s-2.3,1.3-3.7,1.6c-1.4,0.3-2.9,0.5-4.4,0.5c-2.4,0-4.7-0.4-7-1.1c-2.3-0.7-4.4-1.7-6.2-3l2.7-5.3
			c0.3,0.3,0.8,0.6,1.4,1c0.7,0.4,1.5,0.9,2.5,1.3c1,0.4,2,0.8,3.2,1.1s2.3,0.4,3.6,0.4c3.4,0,5.1-1.1,5.1-3.3
			c0-0.7-0.2-1.3-0.6-1.7c-0.4-0.5-0.9-0.9-1.6-1.2c-0.7-0.4-1.6-0.7-2.6-1s-2.1-0.6-3.4-1c-1.5-0.4-2.8-0.9-3.9-1.4s-2-1.1-2.8-1.7
			c-0.7-0.7-1.3-1.4-1.7-2.3c-0.4-0.9-0.6-1.9-0.6-3.1c0-1.6,0.3-3,0.9-4.3c0.6-1.2,1.4-2.3,2.5-3.1s2.3-1.5,3.7-1.9
			c1.4-0.4,2.9-0.6,4.5-0.6c2.2,0,4.3,0.3,6.2,1c1.9,0.7,3.5,1.5,4.9,2.5L458.9,193.1z"/>
		<path class="st0" d="M480.9,216.8c-2.3,0-4.4-0.5-6.3-1.4s-3.5-2.1-4.9-3.6s-2.4-3.2-3.1-5.1c-0.7-1.9-1.1-3.9-1.1-5.9
			c0-2.1,0.4-4.1,1.2-6.1c0.8-1.9,1.9-3.6,3.3-5.1s3-2.7,4.9-3.5c1.9-0.9,4-1.3,6.2-1.3c2.3,0,4.4,0.5,6.3,1.4s3.5,2.2,4.8,3.7
			s2.4,3.2,3.1,5.2c0.7,1.9,1.1,3.9,1.1,5.9c0,2.1-0.4,4.1-1.2,6c-0.8,1.9-1.8,3.6-3.2,5.1c-1.4,1.5-3,2.6-4.9,3.5
			C485.2,216.4,483.1,216.8,480.9,216.8z M471.7,200.6c0,1.4,0.2,2.7,0.6,4s1,2.4,1.8,3.4s1.8,1.8,2.9,2.4c1.1,0.6,2.4,0.9,3.9,0.9
			s2.8-0.3,3.9-0.9c1.1-0.6,2.1-1.4,2.9-2.4s1.4-2.1,1.8-3.4c0.4-1.3,0.6-2.5,0.6-3.9s-0.2-2.7-0.6-4s-1-2.4-1.8-3.4
			s-1.8-1.8-2.9-2.3c-1.1-0.6-2.4-0.9-3.9-0.9s-2.8,0.3-4,0.9c-1.2,0.6-2.1,1.4-2.9,2.4s-1.4,2.1-1.8,3.4
			C471.9,198.1,471.7,199.4,471.7,200.6z"/>
		<path class="st0" d="M499.2,200.4c0-1.9,0.3-3.8,1-5.7s1.7-3.6,3.1-5.1c1.3-1.5,3-2.7,4.9-3.6c1.9-0.9,4.1-1.4,6.6-1.4
			c2.9,0,5.4,0.6,7.6,1.9c2.1,1.3,3.7,2.9,4.7,5l-4.7,3.3c-0.4-0.9-0.9-1.6-1.5-2.3c-0.6-0.6-1.2-1.1-1.9-1.4s-1.4-0.6-2.1-0.8
			c-0.7-0.2-1.5-0.2-2.2-0.2c-1.5,0-2.9,0.3-4,0.9c-1.1,0.6-2.1,1.4-2.9,2.4s-1.3,2.1-1.7,3.4c-0.4,1.3-0.6,2.5-0.6,3.8
			c0,1.4,0.2,2.7,0.7,4c0.4,1.3,1.1,2.4,1.9,3.4s1.8,1.8,2.9,2.4c1.1,0.6,2.4,0.9,3.8,0.9c0.7,0,1.5-0.1,2.2-0.3
			c0.8-0.2,1.5-0.5,2.2-0.8c0.7-0.4,1.3-0.9,1.9-1.5c0.6-0.6,1.1-1.3,1.4-2.2l5,2.9c-0.5,1.2-1.2,2.2-2.2,3.1
			c-0.9,0.9-2,1.7-3.2,2.3s-2.4,1.1-3.8,1.4c-1.3,0.3-2.6,0.5-3.9,0.5c-2.3,0-4.3-0.5-6.2-1.4s-3.5-2.2-4.8-3.7
			c-1.4-1.5-2.4-3.3-3.2-5.2C499.6,204.4,499.2,202.4,499.2,200.4z"/>
		<path class="st0" d="M531.7,216.6v-31.6h6.2v31.6H531.7z"/>
		<path class="st0" d="M553.4,184.9h5.4l12,31.6h-6.3l-2.9-7.9h-11.1l-2.9,7.9h-6.3L553.4,184.9z M560.5,204.4l-4.4-12.4l-4.5,12.4
			H560.5z"/>
		<path class="st0" d="M574.4,216.6v-31.6h6.2v26.3h16.1v5.4L574.4,216.6L574.4,216.6z"/>
		<path class="st0" d="M600.4,216.6v-31.6h6.2v31.6H600.4z"/>
		<path class="st0" d="M611.2,211.9l17.9-21.6h-17.4v-5.4h24.5v4.6l-17.3,21.6h17.4v5.4h-25.1L611.2,211.9L611.2,211.9z"/>
		<path class="st0" d="M663.1,211.1v5.4h-22v-31.6h21.6v5.4h-15.4v7.6h13.3v5h-13.3v8.2L663.1,211.1L663.1,211.1z"/>
		<path class="st0" d="M747.2,216.6v-20.9l-8.2,15.6h-3.3l-8.2-15.6v20.9h-6.2v-31.6h6.6l9.4,18l9.4-18h6.6v31.6H747.2z"/>
		<path class="st0" d="M781.9,211.1v5.4h-22v-31.6h21.6v5.4h-15.4v7.6h13.3v5h-13.3v8.2L781.9,211.1L781.9,211.1z"/>
		<path class="st0" d="M812.5,216.6v-20.9l-8.2,15.6H801l-8.2-15.6v20.9h-6.2v-31.6h6.6l9.4,18l9.4-18h6.6v31.6H812.5z"/>
		<path class="st0" d="M838.8,216.8c-2.3,0-4.4-0.5-6.3-1.4c-1.9-0.9-3.5-2.1-4.9-3.6s-2.4-3.2-3.1-5.1c-0.7-1.9-1.1-3.9-1.1-5.9
			c0-2.1,0.4-4.1,1.2-6.1s1.9-3.6,3.3-5.1c1.4-1.5,3-2.7,4.9-3.5c1.9-0.9,4-1.3,6.2-1.3c2.3,0,4.4,0.5,6.3,1.4
			c1.9,0.9,3.5,2.2,4.8,3.7s2.4,3.2,3.1,5.2c0.7,1.9,1.1,3.9,1.1,5.9c0,2.1-0.4,4.1-1.2,6s-1.8,3.6-3.2,5.1s-3,2.6-4.9,3.5
			C843.1,216.4,841,216.8,838.8,216.8z M829.6,200.6c0,1.4,0.2,2.7,0.6,4c0.4,1.3,1,2.4,1.8,3.4s1.8,1.8,2.9,2.4s2.4,0.9,3.9,0.9
			s2.8-0.3,3.9-0.9c1.1-0.6,2.1-1.4,2.9-2.4c0.8-1,1.4-2.1,1.8-3.4c0.4-1.3,0.6-2.5,0.6-3.9s-0.2-2.7-0.6-4c-0.4-1.3-1-2.4-1.8-3.4
			s-1.8-1.8-2.9-2.3c-1.1-0.6-2.4-0.9-3.9-0.9s-2.8,0.3-4,0.9c-1.2,0.6-2.1,1.4-2.9,2.4c-0.8,1-1.4,2.1-1.8,3.4
			C829.8,198.1,829.6,199.4,829.6,200.6z"/>
		<path class="st0" d="M859,216.6v-31.6h14c1.5,0,2.8,0.3,4,0.9c1.2,0.6,2.3,1.4,3.2,2.4s1.6,2.1,2.1,3.4c0.5,1.3,0.8,2.5,0.8,3.8
			c0,2-0.5,3.9-1.5,5.6c-1,1.7-2.4,2.9-4.2,3.6l7.2,11.9h-6.9l-6.5-10.6h-6.1v10.6L859,216.6L859,216.6z M865.1,200.6h7.7
			c0.6,0,1.1-0.1,1.6-0.4c0.5-0.3,0.9-0.6,1.3-1.1c0.4-0.5,0.6-1,0.8-1.6s0.3-1.3,0.3-2s-0.1-1.4-0.4-2.1c-0.2-0.6-0.6-1.2-1-1.6
			c-0.4-0.5-0.9-0.8-1.4-1.1s-1-0.4-1.6-0.4H865v10.3H865.1z"/>
		<path class="st0" d="M888.6,216.6v-31.6h6.2v31.6H888.6z"/>
		<path class="st0" d="M910.3,184.9h5.4l12,31.6h-6.2l-2.9-7.9h-11.1l-2.9,7.9h-6.3L910.3,184.9z M917.4,204.4L913,192l-4.5,12.4
			H917.4z"/>
		<path class="st0" d="M931.3,216.6v-31.6h6.2v26.3h16.1v5.4L931.3,216.6L931.3,216.6z"/>
		<path class="st0" d="M957.3,216.6v-31.6h6.2v31.6H957.3z"/>
		<path class="st0" d="M968.1,211.9l17.9-21.6h-17.4v-5.4h24.5v4.6l-17.3,21.6h17.4v5.4h-25.1L968.1,211.9L968.1,211.9z"/>
		<path class="st0" d="M1020,211.1v5.4h-22v-31.6h21.6v5.4h-15.4v7.6h13.3v5h-13.3v8.2L1020,211.1L1020,211.1z"/>
	</g>
	<path class="st1" d="M143.4,0.3L143.4,0.3l-1.1,0c-0.1,0-0.1,0-0.2,0v0H12.5c-5.4,0-9.7,4.4-9.7,9.7s4.4,9.7,9.7,9.7h129.8
		c5.6,0.1,10.1,4.6,10.1,10.2c0,5.6-4.6,10.2-10.2,10.2h-1.1v0H29.9v0C14.1,40.7,1.5,53.7,1.5,69.6c0,15.9,12.6,28.9,28.4,29.6v0
		h1.1c0.1,0,0.1,0,0.2,0v0h26v0h45.8c5.6,0.1,10.1,4.6,10.1,10.2c0,5.6-4.6,10.2-10.2,10.2H32.3v0c-15.9,0-28.9,12.6-29.6,28.4h0
		v1.1c0,0.1,0,0.1,0,0.2h0v17.7h0v20.8h0C3.4,203.4,16.4,216,32.3,216c15.9,0,28.9-12.6,29.6-28.4h0v-1.1c0-0.1,0-0.1,0-0.2h0v-17.8
		l0,0v-0.5c0-5.4-4.3-9.7-9.7-9.7s-9.7,4.4-9.7,9.7v0.4l0,0l0,18c-0.1,5.6-4.6,10.1-10.2,10.1c-5.6,0-10.2-4.6-10.2-10.2v-11.7h0
		v-25.7c0.1-5.6,4.6-10.1,10.2-10.1v0h6.4h3.8h19.5h29.2H104v0c15.8-0.7,28.4-13.7,28.4-29.6c0-15.9-12.6-28.9-28.4-29.6v0H103
		c-0.1,0-0.1,0-0.2,0v0h-26v0H31C25.4,79.7,21,75.2,21,69.6c0-5.6,4.6-10.2,10.2-10.2h1.1v0h111.2v0c15.8-0.7,28.4-13.7,28.4-29.6
		C171.8,13.9,159.2,0.9,143.4,0.3z"/>
</g>
</svg>
